<?xml version="1.0" encoding="UTF-8" standalone="no"?>
<!-- Uploaded to: SVG Repo, www.svgrepo.com, Generator: SVG Repo Mixer Tools -->

<svg
   width="800px"
   height="800px"
   viewBox="0 0 24 24"
   fill="none"
   version="1.1"
   id="svg1"
   sodipodi:docname="refresh.svg"
   inkscape:version="1.3.2 (091e20e, 2023-11-25)"
   xmlns:inkscape="http://www.inkscape.org/namespaces/inkscape"
   xmlns:sodipodi="http://sodipodi.sourceforge.net/DTD/sodipodi-0.dtd"
   xmlns="http://www.w3.org/2000/svg"
   xmlns:svg="http://www.w3.org/2000/svg">
  <defs
     id="defs1" />
  <sodipodi:namedview
     id="namedview1"
     pagecolor="#505050"
     bordercolor="#ffffff"
     borderopacity="1"
     inkscape:showpageshadow="0"
     inkscape:pageopacity="0"
     inkscape:pagecheckerboard="1"
     inkscape:deskcolor="#505050"
     inkscape:zoom="0.295"
     inkscape:cx="398.30508"
     inkscape:cy="400"
     inkscape:window-width="1312"
     inkscape:window-height="449"
     inkscape:window-x="0"
     inkscape:window-y="25"
     inkscape:window-maximized="0"
     inkscape:current-layer="svg1" />
  <path
     fill-rule="evenodd"
     clip-rule="evenodd"
     d="m 23.525424,11.949153 c 0,6.337178 -5.137397,11.474576 -11.474577,11.474576 -6.3372359,0 -11.47457582,-5.137398 -11.47457582,-11.474576 0,-6.3372368 5.13733992,-11.47457673 11.47457582,-11.47457673 6.33718,0 11.474577,5.13733993 11.474577,11.47457673 z M 4.5471171,10.897278 C 4.974832,7.1296928 8.1770763,4.2038136 12.061863,4.2038136 c 2.453724,0 4.634926,1.1680315 6.015547,2.974738 0.288585,0.3776512 0.216295,0.917748 -0.161333,1.2063222 C 17.538448,8.6734594 16.998341,8.6012499 16.709755,8.2235872 15.641128,6.8251232 13.957118,5.925 12.061863,5.925 c -2.9345884,0 -5.3623104,2.1597333 -5.7789409,4.972278 h 0.4167797 c 0.3481845,0 0.66206,0.20987 0.7951996,0.531618 0.1331394,0.321631 0.059289,0.691916 -0.1870816,0.937931 L 5.967291,13.705566 c -0.335987,0.335517 -0.8802492,0.335517 -1.2162362,0 L 3.4105259,12.366827 C 3.1641553,12.120812 3.0903164,11.750527 3.2234444,11.428896 3.356584,11.107148 3.6704595,10.897278 4.018644,10.897278 Z M 19.350629,10.192739 c -0.335976,-0.3355164 -0.880215,-0.3355164 -1.21619,0 l -1.340575,1.338739 c -0.246359,0.246015 -0.320141,0.616299 -0.187036,0.937932 0.133105,0.321747 0.447049,0.531617 0.795188,0.531617 h 0.416756 c -0.416642,2.812533 -2.844318,4.972278 -5.778825,4.972278 -1.886535,0 -3.5636136,-0.89169 -4.6329753,-2.27908 -0.2901692,-0.376366 -0.8305528,-0.446362 -1.2069992,-0.15617 -0.376435,0.290192 -0.4463726,0.83053 -0.156215,1.207011 1.3815276,1.79233 3.5538825,2.949425 5.9961895,2.949425 3.884718,0 7.086928,-2.925902 7.5147,-6.693464 h 0.528403 c 0.348255,0 0.662084,-0.20987 0.795189,-0.531617 0.133219,-0.321633 0.05932,-0.691917 -0.187036,-0.937932 z"
     fill="#1C274C"
     id="path1"
     style="fill:#010203;fill-opacity:1;stroke-width:1.14746" />
</svg>
