<?xml version="1.0" encoding="UTF-8" standalone="no"?>
<!-- Uploaded to: SVG Repo, www.svgrepo.com, Generator: SVG Repo Mixer Tools -->

<svg
   height="800px"
   width="800px"
   version="1.1"
   id="_x32_"
   viewBox="0 0 512 512"
   xml:space="preserve"
   sodipodi:docname="settings.svg"
   inkscape:version="1.3.2 (091e20e, 2023-11-25)"
   xmlns:inkscape="http://www.inkscape.org/namespaces/inkscape"
   xmlns:sodipodi="http://sodipodi.sourceforge.net/DTD/sodipodi-0.dtd"
   xmlns="http://www.w3.org/2000/svg"
   xmlns:svg="http://www.w3.org/2000/svg"><defs
   id="defs1" /><sodipodi:namedview
   id="namedview1"
   pagecolor="#505050"
   bordercolor="#ffffff"
   borderopacity="1"
   inkscape:showpageshadow="0"
   inkscape:pageopacity="0"
   inkscape:pagecheckerboard="1"
   inkscape:deskcolor="#505050"
   inkscape:zoom="0.295"
   inkscape:cx="398.30508"
   inkscape:cy="400"
   inkscape:window-width="1312"
   inkscape:window-height="449"
   inkscape:window-x="0"
   inkscape:window-y="25"
   inkscape:window-maximized="0"
   inkscape:current-layer="_x32_" />
<style
   type="text/css"
   id="style1">
	.st0{fill:#000000;}
</style>
<g
   id="g1"
   transform="matrix(0.80508455,0,0,0.80508455,49.898431,49.898431)">
	<path
   class="st0"
   d="m 502.325,307.303 -39.006,-30.805 c -6.215,-4.908 -9.665,-12.429 -9.668,-20.348 0,-0.084 0,-0.168 0,-0.252 -0.014,-7.936 3.44,-15.478 9.667,-20.396 l 39.007,-30.806 c 8.933,-7.055 12.093,-19.185 7.737,-29.701 l -17.134,-41.366 c -4.356,-10.516 -15.167,-16.86 -26.472,-15.532 l -49.366,5.8 c -7.881,0.926 -15.656,-1.966 -21.258,-7.586 -0.059,-0.06 -0.118,-0.119 -0.177,-0.178 -5.597,-5.602 -8.476,-13.36 -7.552,-21.225 l 5.799,-49.363 C 395.23,34.24 388.887,23.429 378.371,19.073 L 337.004,1.939 C 326.488,-2.417 314.358,0.743 307.303,9.675 L 276.498,48.68 c -4.908,6.215 -12.43,9.665 -20.349,9.668 -0.084,0 -0.168,0 -0.252,0 -7.935,0.014 -15.477,-3.44 -20.395,-9.667 L 204.697,9.675 C 197.642,0.742 185.512,-2.417 174.995,1.939 L 133.63,19.072 c -10.516,4.356 -16.86,15.167 -15.532,26.473 l 5.799,49.366 c 0.926,7.881 -1.964,15.656 -7.585,21.257 -0.059,0.059 -0.118,0.118 -0.178,0.178 -5.602,5.598 -13.36,8.477 -21.226,7.552 L 45.545,118.099 C 34.24,116.771 23.429,123.114 19.073,133.63 L 1.939,174.996 c -4.356,10.516 -1.196,22.646 7.736,29.701 l 39.006,30.805 c 6.215,4.908 9.665,12.429 9.668,20.348 0,0.084 0,0.167 0,0.251 0.014,7.935 -3.44,15.477 -9.667,20.395 L 9.675,307.303 c -8.933,7.055 -12.092,19.185 -7.736,29.701 l 17.134,41.365 c 4.356,10.516 15.168,16.86 26.472,15.532 l 49.366,-5.799 c 7.882,-0.926 15.656,1.965 21.258,7.586 0.059,0.059 0.118,0.119 0.178,0.178 5.597,5.603 8.476,13.36 7.552,21.226 l -5.799,49.364 c -1.328,11.305 5.015,22.116 15.532,26.472 l 41.366,17.134 c 10.516,4.356 22.646,1.196 29.701,-7.736 l 30.804,-39.005 c 4.908,-6.215 12.43,-9.665 20.348,-9.669 0.084,0 0.168,0 0.251,0 7.936,-0.014 15.478,3.44 20.396,9.667 l 30.806,39.007 c 7.055,8.933 19.185,12.093 29.701,7.736 l 41.366,-17.134 c 10.516,-4.356 16.86,-15.168 15.532,-26.472 l -5.8,-49.366 c -0.926,-7.881 1.965,-15.656 7.586,-21.257 0.059,-0.059 0.119,-0.119 0.178,-0.178 5.602,-5.597 13.36,-8.476 21.225,-7.552 l 49.364,5.799 c 11.305,1.328 22.117,-5.015 26.472,-15.531 l 17.134,-41.365 c 4.356,-10.518 1.196,-22.648 -7.737,-29.703 z m -221.033,22.395 c -39.68,16.436 -85.172,-2.407 -101.607,-42.087 -16.436,-39.68 2.407,-85.171 42.087,-101.608 39.68,-16.436 85.172,2.407 101.608,42.088 16.435,39.68 -2.408,85.171 -42.088,101.607 z"
   id="path1" />
</g>
</svg>
